Winter's Bone (2011)(divx)(nl subs) TBS

*****NOw in the Cinema*****
***Momenteel te zien in de bioscoop*** 
 


Verenigde Staten
Drama / Mystery
100 minuten

geregisseerd door Debra Granik
met Jennifer Lawrence, John Hawkes en Lauren Sweetser

De 17-jarige Ree woont samen met haar broertje, zusje en zieke moeder, voor wie zij zorgt, in het ruige Ozark berggebied. Wanneer zij hoort dat haar 
criminele vader hun huis als borg heeft opgegeven om onder zijn gevangenisstraf uit te komen, en vervolgens is verdwenen, besluit ze hem te gaan zoeken. Met 
gevaar voor eigen leven begint Ree een zoektocht langs leugens en bedreigingen van verre familieleden om zo de waarheid achter haar vaders geheimen te 
achterhalen.

Storyline

With an absent father and a withdrawn and depressed mother, 17 year-old Ree Dolly keeps her family together in a dirt poor rural area. She's taken aback 
however when the local Sheriff tells her that her father put up their house as collateral for his bail and unless he shows up for his trial in a week's time, 
they will lose it all. She knows her father is involved in the local drug trade and manufactures crystal meth, but everywhere she goes the message is the 
same: stay out of it and stop poking your nose in other people's business. She refuses to listen, even after her father's brother, Teardrop, tells her he's 
probably been killed. She pushes on, putting her own life in danger, for the sake of her family until the truth, or enough of it, is revealed


General INFO

Format                           : AVI
Format/Info                      : Audio Video Interleave
File size                        : 959 MiB
Duration                         : 1h 40mn
Overall bit rate                 : 1 338 Kbps

Video
ID                               : 0
Format                           : MPEG-4 Visual
Format profile                   : Simple@L3
Format settings, BVOP            : No
Format settings, QPel            : No
Format settings, GMC             : No warppoints
Format settings, Matrix          : Default (H.263)
Codec ID                         : XVID
Codec ID/Hint                    : XviD
Duration                         : 1h 40mn
Bit rate                         : 1 196 Kbps
Width                            : 720 pixels
Height                           : 400 pixels
Display aspect ratio             : 16:9
Frame rate                       : 29.970 fps
Color space                      : YUV
Chroma subsampling               : 4:2:0
Bit depth                        : 8 bits
Scan type                        : Progressive
Bits/(Pixel*Frame)               : 0.139
Stream size                      : 858 MiB (89%)
Writing library                  : Magic0432

Audio
ID                               : 1
Format                           : MPEG Audio
Format version                   : Version 1
Format profile                   : Layer 3
Mode                             : Joint stereo
Codec ID                         : 55
Codec ID/Hint                    : MP3
Duration                         : 1h 40mn
Bit rate mode                    : Constant
Bit rate                         : 128 Kbps
Channel(s)                       : 2 channels
Sampling rate                    : 48.0 KHz
Stream size                      : 91.7 MiB (10%)
Alignment                        : Aligned on interleaves
Interleave, duration             : 24 ms (0.72 video frame)
Writing library                  : LAME3.97


Categorie : Beeld 
Formaat : DivX
Cover : Yes meegepost
jaar uitgave : 2010 
Bron : Retail
Ondertitels : Nederlands (ingebakken)
Thanks: abee60  
 
 
http://www.moviemeter.nl/film/63615  
http://www.imdb.com/title/tt1399683 


Black-Sam 